<svg width="21" height="26" viewBox="0 0 21 26" fill="none" xmlns="http://www.w3.org/2000/svg">
<path d="M19.4589 0.774628C19.2518 0.725382 19.0339 0.751962 18.8447 0.849549L17.5 1.52111L16.1437 0.842987C16.0222 0.782245 15.8882 0.750622 15.7524 0.750622C15.6166 0.750622 15.4826 0.782245 15.3611 0.842987L13.9879 1.52166L12.6328 0.842987C12.5109 0.781801 12.3765 0.749937 12.2401 0.749937C12.1038 0.749937 11.9693 0.781801 11.8475 0.842987L10.4999 1.51947L9.16284 0.844627C9.04132 0.783021 8.90709 0.750643 8.77085 0.750073C8.6346 0.749504 8.50011 0.780758 8.37808 0.841346L6.99995 1.52221L5.6437 0.84244C5.522 0.781727 5.38786 0.750124 5.25186 0.750124C5.11586 0.750124 4.98172 0.781727 4.86003 0.84244L3.49995 1.52111L2.14151 0.84244C1.96639 0.754655 1.76687 0.728175 1.57491 0.767241C1.38295 0.806308 1.20965 0.90866 1.08276 1.05791C0.946 1.22091 0.872261 1.42757 0.874949 1.64033V14.75L0.877683 14.7528H11.3749C11.8391 14.7528 12.2842 14.9371 12.6124 15.2653C12.9406 15.5935 13.1249 16.0386 13.1249 16.5028V22.1875C13.1249 23.879 14.9335 25.25 16.625 25.25H17.2812C18.0354 25.25 18.7587 24.9504 19.292 24.4171C19.8253 23.8838 20.125 23.1605 20.125 22.4063V1.62502C20.1251 1.42918 20.0596 1.23894 19.9388 1.08477C19.818 0.930591 19.649 0.821385 19.4589 0.774628ZM15.75 12.125H8.77729C8.30479 12.125 7.89682 11.7619 7.87604 11.2894C7.87072 11.1713 7.88939 11.0534 7.9309 10.9427C7.97242 10.832 8.03593 10.7309 8.1176 10.6455C8.19927 10.56 8.29741 10.492 8.40609 10.4455C8.51477 10.399 8.63174 10.375 8.74995 10.375H15.7226C16.1951 10.375 16.6031 10.7381 16.6239 11.2106C16.6292 11.3287 16.6105 11.4467 16.569 11.5573C16.5275 11.668 16.464 11.7691 16.3823 11.8546C16.3006 11.94 16.2025 12.0081 16.0938 12.0545C15.9851 12.101 15.8682 12.125 15.75 12.125ZM15.75 7.75002H5.27729C4.80479 7.75002 4.39682 7.38689 4.37604 6.91439C4.37072 6.79631 4.38939 6.67837 4.4309 6.5677C4.47242 6.45702 4.53593 6.35591 4.6176 6.27046C4.69927 6.185 4.79741 6.11698 4.90609 6.0705C5.01477 6.02402 5.13174 6.00005 5.24995 6.00002H15.7226C16.1951 6.00002 16.6031 6.36314 16.6239 6.83564C16.6292 6.95373 16.6105 7.07166 16.569 7.18234C16.5275 7.29301 16.464 7.39413 16.3823 7.47958C16.3006 7.56503 16.2025 7.63305 16.0938 7.67953C15.9851 7.72601 15.8682 7.74999 15.75 7.75002Z" fill="white"/>
</svg>
