<svg width="15" height="11" viewBox="0 0 15 11" fill="none" xmlns="http://www.w3.org/2000/svg">
<path d="M14.4572 3.26363C14.3921 3.16947 14.3051 3.09251 14.2036 3.03934C14.1022 2.98617 13.9895 2.95837 13.875 2.95834H4.19417L3.37675 0.996253C3.26957 0.737869 3.08808 0.517128 2.85529 0.362019C2.6225 0.20691 2.3489 0.124418 2.06917 0.125003H0.416626V1.54167H2.06917L5.4295 9.60604C5.48332 9.73507 5.57413 9.84528 5.69047 9.9228C5.80681 10.0003 5.94349 10.0417 6.08329 10.0417H11.75C12.0453 10.0417 12.3095 9.85821 12.4137 9.58267L14.5387 3.916C14.5788 3.80878 14.5924 3.69341 14.5782 3.57979C14.564 3.46617 14.5225 3.35769 14.4572 3.26363Z" fill="#F5313F"/>
</svg>
