<svg width="16" height="16" viewBox="0 0 16 16" fill="none" xmlns="http://www.w3.org/2000/svg">
<path d="M15.6377 7.87696L8.39727 0.641801C8.34514 0.589566 8.28322 0.548125 8.21505 0.51985C8.14688 0.491574 8.07381 0.47702 8.00001 0.47702C7.92621 0.47702 7.85313 0.491574 7.78497 0.51985C7.7168 0.548125 7.65488 0.589566 7.60274 0.641801L0.362314 7.87696C0.151376 8.0879 0.0318451 8.37442 0.0318451 8.67325C0.0318451 9.29375 0.536337 9.79825 1.15684 9.79825H1.91974V14.9609C1.91974 15.2721 2.1711 15.5234 2.48224 15.5234H6.87501V11.5859H8.84376V15.5234H13.5178C13.8289 15.5234 14.0803 15.2721 14.0803 14.9609V9.79825H14.8432C15.142 9.79825 15.4285 9.68047 15.6395 9.46778C16.0772 9.02833 16.0772 8.31641 15.6377 7.87696Z" fill="#6D6E9C"/>
</svg>
